# xmcd
#
# Track frame offsets:
#	150
#	15586
#	29204
#	43767
#	61167
#	69443
#	88075
#	111910
#	118519
#	132338
#	151888
#	171993
#	183551
#	212719
#	223428
#	235515
#	260009
#	269127
#	293643
#
# Disc length: 4120 seconds
# Revision: 0
# Processed by: cddbd v1.5.2PL0 Copyright (c) Steve Scherf et al.
# Submitted via: dBpowerAMP V12.0
#
DISCID=28101613
DTITLE=Various Artist - Charlie Peacock: Producer
DYEAR=1900
DGENRE=Jazz
TTITLE0=The Civil Wars - Barton Hollow
TTITLE1=The Civil Wars - 20 Years
TTITLE2=Charlie Peacock - Ghost Of The Kitty Cat
TTITLE3=Zac Williams and The Bellow - Fire Red Horse
TTITLE4=Charlie Peacock, Jerry McPherson and Sam Ashworth - Wrestling For Jesus Soundtrack
TTITLE5=Switchfoot - Dare You To Move
TTITLE6=Ladysmith Black Mambazo - 'Akehlulek' Ubaba
TTITLE7=Béla Fleck and Phil Keaggy - In The Light
TTITLE8=Switchfoot - Mess Of Me
TTITLE9=Nichole Nordeman - In Your Eyes
TTITLE10=Amy Grant, Ce Ce Winans and Al Green - Christmas/Gospel Montage
TTITLE11=Stacie Orrico, Nichole Nordeman and Leigh Nash - Female Pop Montage
TTITLE12=Charlie Peacock - London Twist N' Turn
TTITLE13=Brooke Waggoner - Ruminate/Go Easy Little Doves
TTITLE14=Joe Tex - Gotcha (Reinvention)
TTITLE15=Michelle Tumes - Healing Waters
TTITLE16=Leigh Nash - Crazy
TTITLE17=Charlie Peacock, Marc Ribot and Jeff Coffin - Rice Dice Mice
TTITLE18=Attwater - Never Gonna Happen
EXTD=
EXTT0=
EXTT1=
EXTT2=
EXTT3=
EXTT4=
EXTT5=
EXTT6=
EXTT7=
EXTT8=
EXTT9=
EXTT10=
EXTT11=
EXTT12=
EXTT13=
EXTT14=
EXTT15=
EXTT16=
EXTT17=
EXTT18=
PLAYORDER=
